<?xml version="1.0" standalone="no"?>
<!DOCTYPE svg PUBLIC "-//W3C//DTD SVG 20010904//EN"
 "http://www.w3.org/TR/2001/REC-SVG-20010904/DTD/svg10.dtd">
<svg version="1.0" xmlns="http://www.w3.org/2000/svg"
 width="1176.000000pt" height="1176.000000pt" viewBox="0 0 1176.000000 1176.000000"
 preserveAspectRatio="xMidYMid meet">
<metadata>
Created by potrace 1.14, written by Peter Selinger 2001-2017
</metadata>
<g transform="translate(0.000000,1176.000000) scale(0.100000,-0.100000)"
fill="#000000" stroke="none">
<path d="M4805 11754 c-22 -2 -92 -9 -155 -15 -660 -62 -1308 -298 -1873 -682
-386 -263 -771 -648 -1034 -1034 -327 -480 -549 -1026 -642 -1573 -60 -355
-55 12 -58 -4413 l-3 -4037 1200 0 1200 0 0 2046 c0 1633 3 2045 13 2041 548
-226 1047 -326 1617 -327 l195 0 1877 -1877 1878 -1878 847 848 848 847 -1518
1518 c-834 834 -1517 1520 -1517 1524 0 3 80 86 178 185 98 98 220 229 270
291 506 624 805 1342 894 2147 17 158 17 632 0 790 -57 509 -193 971 -418
1415 -483 954 -1321 1668 -2347 1999 -240 78 -492 131 -782 167 -122 14 -579
27 -670 18z m534 -2424 c288 -59 515 -167 733 -350 274 -229 467 -559 540
-923 32 -161 32 -433 0 -594 -130 -652 -622 -1144 -1275 -1275 -150 -30 -422
-32 -572 -4 -585 109 -1069 528 -1244 1077 -61 194 -75 285 -75 499 0 215 14
307 76 499 118 368 364 673 716 884 159 96 415 182 610 206 123 16 371 6 491
-19z"/>
</g>
</svg>
